<svg xmlns="http://www.w3.org/2000/svg" viewBox="0 0 1024 1024" width="1024" height="1024">
  <defs>
    <linearGradient id="badge" x1="0" y1="0" x2="1" y2="1">
      <stop offset="0" stop-color="#2A2320"/>
      <stop offset="1" stop-color="#100D0B"/>
    </linearGradient>
  </defs>

  <rect x="0" y="0" width="1024" height="1024" rx="176" fill="url(#badge)"/>

  <path d="M 352.177 283.250 C 345.778 298.668, 344.068 320.126, 348.011 335.542 C 352.214 351.977, 363.506 370.752, 382.566 392.994 C 386.570 397.666, 389.683 401.650, 389.486 401.848 C 388.913 402.420, 373.089 389.700, 366.432 383.318 C 363.095 380.118, 357.851 374.617, 354.778 371.094 L 349.192 364.687 342.346 369.538 C 311.391 391.470, 290.734 409.078, 261.104 438.789 L 236.708 463.252 237.305 483.376 C 239.036 541.728, 256.169 595.479, 288.519 644.049 C 318.085 688.439, 357.749 723.479, 404.500 746.507 C 421.372 754.818, 440.712 763, 443.485 763 C 444.386 763, 452.354 748.217, 464.640 723.750 C 483.932 685.332, 484.500 684.349, 491.425 677.389 C 500.862 667.905, 514.872 661, 524.682 661 C 526.507 661, 527.991 660.663, 527.980 660.250 C 527.947 659.070, 512.582 647.888, 500.500 640.252 C 485.012 630.464, 464.616 618.927, 442.713 607.564 L 423.926 597.819 418.459 586.917 C 413.125 576.282, 395.484 535.185, 393.079 527.792 C 392.004 524.487, 392.257 522.636, 395.405 510.792 C 401.025 489.645, 404.846 477.295, 404.932 480 C 404.975 481.375, 404.051 490.974, 402.879 501.332 L 400.748 520.164 403.420 526.973 C 407.693 537.865, 431.526 585.342, 433.606 587.107 C 434.648 587.992, 442.025 592.426, 450 596.961 C 484.728 616.710, 506.031 630.992, 525.500 647.578 C 548.561 667.223, 559.061 680.387, 570.134 703.537 L 575.982 715.762 582.741 718.243 C 594.293 722.485, 599.970 723.485, 612.500 723.490 C 622.375 723.494, 625.651 723.095, 631 721.238 C 645.630 716.160, 656.091 707.538, 666.315 692.131 L 672.867 682.258 671.064 675.247 L 669.260 668.236 672.763 663.868 C 677.638 657.789, 682.623 646.965, 684.907 637.500 C 687.099 628.416, 688.248 618, 687.058 618 C 686.619 618, 683.717 621.038, 680.609 624.750 C 677.501 628.462, 673.146 633.006, 670.932 634.846 L 666.906 638.192 667.703 632.846 C 668.778 625.637, 668.475 604.671, 667.265 602.509 C 666.428 601.014, 665.657 601.589, 661.732 606.636 C 656.913 612.833, 644.144 625.625, 640.100 628.307 C 637.780 629.846, 637.603 629.776, 634.749 626.199 C 631.166 621.708, 627.469 614.568, 626.621 610.500 C 626.276 608.850, 625.540 603.020, 624.983 597.544 C 624.427 592.068, 623.252 585.302, 622.371 582.508 L 620.770 577.428 627.008 564.964 C 634.657 549.683, 638.740 543.427, 646.500 535.102 C 652.995 528.133, 665.014 519.675, 670.948 517.897 C 674.196 516.924, 675.253 517.091, 679.575 519.259 C 682.284 520.618, 686.827 522.317, 689.671 523.034 L 694.843 524.338 695.531 530.270 C 696.794 541.145, 693.278 569.323, 689.124 581.629 C 687.856 585.383, 687.664 587, 688.486 587 C 690.533 587, 703.528 572.795, 708.466 565.160 C 713.906 556.749, 719.039 546.032, 723.152 534.500 L 726.005 526.500 725.562 543 C 725.293 553.036, 724.523 561.851, 723.595 565.500 C 721.375 574.239, 721.553 574.540, 726.450 570.328 C 737.106 561.162, 746.065 547.109, 751.995 530.258 C 755.443 520.460, 755.964 519.596, 759.455 517.898 C 761.519 516.894, 763.862 515.530, 764.661 514.866 C 769.618 510.752, 775.231 494.191, 777.541 476.868 C 778.686 468.274, 779.728 464.643, 782.979 457.921 C 789.950 443.506, 788.813 438.672, 775.159 424.672 C 761.034 410.188, 742.789 397.301, 721.621 386.855 L 708.741 380.500 699.540 361.457 L 690.338 342.414 679.919 336.257 C 654.126 321.013, 620.749 307.545, 590.434 300.149 C 569.203 294.969, 529.896 288.991, 517.199 289.010 C 506.102 289.027, 448.311 299.144, 443.105 301.982 C 442.130 302.513, 443.940 304.031, 449.105 307.014 C 470.422 319.328, 476.390 322.965, 475.302 322.982 C 471.988 323.032, 403.835 296.230, 372.500 282.553 C 364.250 278.953, 356.979 276.005, 356.343 276.003 C 355.707 276.001, 353.832 279.262, 352.177 283.250"
    fill="#E9B400" fill-rule="evenodd"/>
</svg>
